<svg xmlns="http://www.w3.org/2000/svg" xmlns:xlink="http://www.w3.org/1999/xlink" width="512" zoomAndPan="magnify" viewBox="0 0 384 383.999986" height="512" preserveAspectRatio="xMidYMid meet" version="1.0"><defs><clipPath id="9c1f17dd3f"><path d="M 0 0 L 383.601562 0 L 383.601562 384 L 0 384 Z M 0 0 " clip-rule="nonzero"/></clipPath><clipPath id="b7b6be3224"><path d="M 74.601562 0 L 308.601562 0 C 350.023438 0 383.601562 33.578125 383.601562 75 L 383.601562 309 C 383.601562 350.421875 350.023438 384 308.601562 384 L 74.601562 384 C 33.179688 384 -0.398438 350.421875 -0.398438 309 L -0.398438 75 C -0.398438 33.578125 33.179688 0 74.601562 0 Z M 74.601562 0 " clip-rule="nonzero"/></clipPath><clipPath id="e518315531"><path d="M 0 0 L 383.601562 0 L 383.601562 384 L 0 384 Z M 0 0 " clip-rule="nonzero"/></clipPath><clipPath id="5724c1e78e"><path d="M 74.601562 0 L 308.601562 0 C 350.023438 0 383.601562 33.578125 383.601562 75 L 383.601562 309 C 383.601562 350.421875 350.023438 384 308.601562 384 L 74.601562 384 C 33.179688 384 -0.398438 350.421875 -0.398438 309 L -0.398438 75 C -0.398438 33.578125 33.179688 0 74.601562 0 Z M 74.601562 0 " clip-rule="nonzero"/></clipPath><clipPath id="62b022580a"><rect x="0" width="384" y="0" height="384"/></clipPath><clipPath id="0b4650ee7f"><path d="M 0.398438 1 L 307.175781 1 L 307.175781 334.28125 L 0.398438 334.28125 Z M 0.398438 1 " clip-rule="nonzero"/></clipPath><clipPath id="f4436b8472"><path d="M 0.398438 74.359375 L 0.398438 259.640625 C 0.398438 279.53125 8.300781 298.609375 22.367188 312.671875 C 36.433594 326.738281 55.507812 334.640625 75.398438 334.640625 L 232.601562 334.640625 C 252.492188 334.640625 271.566406 326.738281 285.632812 312.671875 C 299.699219 298.609375 307.601562 279.53125 307.601562 259.640625 L 307.601562 74.359375 C 307.601562 54.46875 299.699219 35.390625 285.632812 21.328125 C 271.566406 7.261719 252.492188 -0.640625 232.601562 -0.640625 L 75.398438 -0.640625 C 55.507812 -0.640625 36.433594 7.261719 22.367188 21.328125 C 8.300781 35.390625 0.398438 54.46875 0.398438 74.359375 Z M 0.398438 74.359375 " clip-rule="nonzero"/></clipPath><clipPath id="e0192e3cd1"><path d="M 47.644531 61.140625 L 260.75 61.140625 L 260.75 274.242188 L 47.644531 274.242188 Z M 47.644531 61.140625 " clip-rule="nonzero"/></clipPath><clipPath id="8444b434b8"><path d="M 154.195312 61.140625 C 95.351562 61.140625 47.644531 108.84375 47.644531 167.691406 C 47.644531 226.539062 95.351562 274.242188 154.195312 274.242188 C 213.042969 274.242188 260.75 226.539062 260.75 167.691406 C 260.75 108.84375 213.042969 61.140625 154.195312 61.140625 Z M 154.195312 61.140625 " clip-rule="nonzero"/></clipPath><clipPath id="b668e8970a"><path d="M 0.644531 0.140625 L 213.75 0.140625 L 213.75 213.242188 L 0.644531 213.242188 Z M 0.644531 0.140625 " clip-rule="nonzero"/></clipPath><clipPath id="63083b4741"><path d="M 107.195312 0.140625 C 48.351562 0.140625 0.644531 47.84375 0.644531 106.691406 C 0.644531 165.539062 48.351562 213.242188 107.195312 213.242188 C 166.042969 213.242188 213.75 165.539062 213.75 106.691406 C 213.75 47.84375 166.042969 0.140625 107.195312 0.140625 Z M 107.195312 0.140625 " clip-rule="nonzero"/></clipPath><clipPath id="7b3feaee9b"><rect x="0" width="214" y="0" height="214"/></clipPath><clipPath id="c7cff090de"><path d="M 63.917969 108.359375 L 243 108.359375 L 243 245.449219 L 63.917969 245.449219 Z M 63.917969 108.359375 " clip-rule="nonzero"/></clipPath><clipPath id="94b27ce03e"><path d="M 63.917969 176.882812 C 63.917969 214.726562 94.597656 245.40625 132.441406 245.40625 L 174.539062 245.40625 C 212.382812 245.40625 243.0625 214.726562 243.0625 176.882812 C 243.0625 139.039062 212.382812 108.359375 174.539062 108.359375 L 132.441406 108.359375 C 94.597656 108.359375 63.917969 139.039062 63.917969 176.882812 Z M 63.917969 176.882812 " clip-rule="nonzero"/></clipPath><clipPath id="103f2a7179"><rect x="0" width="309" y="0" height="335"/></clipPath></defs><g clip-path="url(#9c1f17dd3f)"><g clip-path="url(#b7b6be3224)"><g><g clip-path="url(#62b022580a)"><g clip-path="url(#e518315531)"><g clip-path="url(#5724c1e78e)"><path fill="#1a3da5" d="M -0.398438 0 L 383.601562 0 L 383.601562 384 L -0.398438 384 Z M -0.398438 0 " fill-opacity="1" fill-rule="nonzero"/></g></g></g></g></g></g><g transform="matrix(1, 0, 0, 1, 38, 25)"><g clip-path="url(#103f2a7179)"><g clip-path="url(#0b4650ee7f)"><g clip-path="url(#f4436b8472)"><path fill="#ffffff" d="M 1.933594 77.105469 C 13.566406 75.496094 23.867188 74.625 33.925781 72.570312 C 54.054688 68.445312 72.007812 59.113281 88.597656 47.3125 C 107.421875 33.921875 125.832031 19.949219 144.464844 6.289062 C 153.910156 -0.632812 154 -0.636719 163.667969 6.453125 C 181.96875 19.867188 200.042969 33.59375 218.519531 46.765625 C 242.507812 63.871094 268.820312 74.863281 298.761719 75.898438 C 306.277344 76.15625 307.628906 77.460938 307.5625 84.707031 C 307.191406 125.597656 306.09375 166.457031 295.054688 206.230469 C 282.15625 252.726562 254.796875 288.136719 212.117188 310.789062 C 196.164062 319.253906 179.046875 325.589844 162.234375 332.339844 C 158.296875 333.921875 153.019531 334.625 149.089844 333.398438 C 115.710938 322.980469 84.53125 308.332031 58.617188 284.09375 C 31.332031 258.570312 16.582031 226.355469 8.984375 190.476562 C 1.503906 155.15625 0.429688 119.269531 0.640625 83.320312 C 0.648438 81.382812 1.425781 79.445312 1.933594 77.105469 Z M 138.0625 241.824219 C 154.296875 225.859375 235.738281 123.667969 239.445312 114.535156 C 231.3125 107.703125 222.980469 100.710938 214.085938 93.238281 C 187.476562 125.53125 161.878906 156.597656 135.792969 188.246094 C 127.289062 180.222656 119.957031 173.003906 112.289062 166.152344 C 104.761719 159.429688 98.453125 151.179688 88.71875 145.992188 C 81.335938 154.8125 74.328125 163.191406 66.933594 172.023438 C 91.140625 195.785156 114.359375 218.570312 138.0625 241.824219 Z M 138.0625 241.824219 " fill-opacity="1" fill-rule="nonzero"/></g></g><g clip-path="url(#e0192e3cd1)"><g clip-path="url(#8444b434b8)"><g transform="matrix(1, 0, 0, 1, 47, 61)"><g clip-path="url(#7b3feaee9b)"><g clip-path="url(#b668e8970a)"><g clip-path="url(#63083b4741)"><path fill="#ffffff" d="M 0.644531 0.140625 L 213.75 0.140625 L 213.75 213.242188 L 0.644531 213.242188 Z M 0.644531 0.140625 " fill-opacity="1" fill-rule="nonzero"/></g></g></g></g></g></g><g clip-path="url(#c7cff090de)"><g clip-path="url(#94b27ce03e)"><path fill="#1a3da5" d="M 242.992188 131.730469 L 219.617188 108.359375 L 129.316406 198.128906 L 87.351562 156.695312 L 63.980469 180.070312 C 85.757812 201.847656 107.539062 223.625 129.316406 245.40625 Z M 242.992188 131.730469 " fill-opacity="1" fill-rule="evenodd"/></g></g></g></g></svg>