<svg xmlns="http://www.w3.org/2000/svg" xmlns:xlink="http://www.w3.org/1999/xlink" width="1024" zoomAndPan="magnify" viewBox="0 0 768 767.999994" height="1024" preserveAspectRatio="xMidYMid meet" version="1.0"><defs><clipPath id="068ca9a05f"><path d="M 75 0 L 693 0 C 712.890625 0 731.96875 7.902344 746.03125 21.96875 C 760.097656 36.03125 768 55.109375 768 75 L 768 693 C 768 712.890625 760.097656 731.96875 746.03125 746.03125 C 731.96875 760.097656 712.890625 768 693 768 L 75 768 C 55.109375 768 36.03125 760.097656 21.96875 746.03125 C 7.902344 731.96875 0 712.890625 0 693 L 0 75 C 0 55.109375 7.902344 36.03125 21.96875 21.96875 C 36.03125 7.902344 55.109375 0 75 0 Z M 75 0 " clip-rule="nonzero"/></clipPath><clipPath id="e56218dac6"><path d="M 0 0 L 768 0 L 768 768 L 0 768 Z M 0 0 " clip-rule="nonzero"/></clipPath><clipPath id="cd926d7eb8"><path d="M 75 0 L 693 0 C 712.890625 0 731.96875 7.902344 746.03125 21.96875 C 760.097656 36.03125 768 55.109375 768 75 L 768 693 C 768 712.890625 760.097656 731.96875 746.03125 746.03125 C 731.96875 760.097656 712.890625 768 693 768 L 75 768 C 55.109375 768 36.03125 760.097656 21.96875 746.03125 C 7.902344 731.96875 0 712.890625 0 693 L 0 75 C 0 55.109375 7.902344 36.03125 21.96875 21.96875 C 36.03125 7.902344 55.109375 0 75 0 Z M 75 0 " clip-rule="nonzero"/></clipPath><clipPath id="517262f81e"><rect x="0" width="768" y="0" height="768"/></clipPath><clipPath id="e205fb480c"><path d="M 120 98 L 647.960938 98 L 647.960938 671.828125 L 120 671.828125 Z M 120 98 " clip-rule="nonzero"/></clipPath><clipPath id="084ac15554"><path d="M 201.175781 209.039062 L 560.488281 209.039062 L 560.488281 568.351562 L 201.175781 568.351562 Z M 201.175781 209.039062 " clip-rule="nonzero"/></clipPath><clipPath id="49989d7a77"><path d="M 380.832031 209.039062 C 281.609375 209.039062 201.175781 289.476562 201.175781 388.695312 C 201.175781 487.917969 281.609375 568.351562 380.832031 568.351562 C 480.050781 568.351562 560.488281 487.917969 560.488281 388.695312 C 560.488281 289.476562 480.050781 209.039062 380.832031 209.039062 Z M 380.832031 209.039062 " clip-rule="nonzero"/></clipPath><clipPath id="058173d89c"><path d="M 0.175781 0.0390625 L 359.488281 0.0390625 L 359.488281 359.351562 L 0.175781 359.351562 Z M 0.175781 0.0390625 " clip-rule="nonzero"/></clipPath><clipPath id="e08d114390"><path d="M 179.832031 0.0390625 C 80.609375 0.0390625 0.175781 80.476562 0.175781 179.695312 C 0.175781 278.917969 80.609375 359.351562 179.832031 359.351562 C 279.050781 359.351562 359.488281 278.917969 359.488281 179.695312 C 359.488281 80.476562 279.050781 0.0390625 179.832031 0.0390625 Z M 179.832031 0.0390625 " clip-rule="nonzero"/></clipPath><clipPath id="bd4344cb41"><rect x="0" width="360" y="0" height="360"/></clipPath><clipPath id="321601ea50"><path d="M 229.148438 283.195312 L 537 283.195312 L 537 518.695312 L 229.148438 518.695312 Z M 229.148438 283.195312 " clip-rule="nonzero"/></clipPath></defs><g clip-path="url(#068ca9a05f)"><g transform="matrix(1, 0, 0, 1, 0, -0.000000000000057351)"><g clip-path="url(#517262f81e)"><g clip-path="url(#e56218dac6)"><g clip-path="url(#cd926d7eb8)"><rect x="-168.96" width="1105.92" fill="#0a714e" height="1105.919991" y="-168.959999" fill-opacity="1"/></g></g></g></g></g><g clip-path="url(#e205fb480c)"><path fill="#ffffff" d="M 122.589844 229.476562 C 142.589844 226.710938 160.300781 225.214844 177.585938 221.675781 C 212.1875 214.585938 243.050781 198.542969 271.570312 178.261719 C 303.933594 155.242188 335.578125 131.222656 367.609375 107.738281 C 383.84375 95.84375 383.996094 95.835938 400.621094 108.019531 C 432.082031 131.078125 463.152344 154.675781 494.910156 177.320312 C 536.148438 206.726562 581.382812 225.617188 632.851562 227.398438 C 645.773438 227.84375 648.09375 230.089844 647.980469 242.539062 C 647.347656 312.832031 645.457031 383.074219 626.480469 451.449219 C 604.304688 531.375 557.273438 592.25 483.910156 631.1875 C 456.484375 645.742188 427.054688 656.628906 398.152344 668.234375 C 391.386719 670.953125 382.316406 672.160156 375.5625 670.050781 C 318.179688 652.144531 264.582031 626.964844 220.035156 585.296875 C 173.125 541.421875 147.769531 486.042969 134.714844 424.367188 C 121.855469 363.644531 120.007812 301.953125 120.367188 240.15625 C 120.382812 236.828125 121.71875 233.496094 122.589844 229.476562 Z M 356.601562 512.636719 C 384.507812 485.191406 524.515625 309.519531 530.886719 293.820312 C 516.90625 282.078125 502.582031 270.050781 487.292969 257.210938 C 441.546875 312.71875 397.542969 366.128906 352.703125 420.53125 C 338.082031 406.742188 325.476562 394.328125 312.296875 382.554688 C 299.355469 370.996094 288.515625 356.816406 271.777344 347.890625 C 259.089844 363.058594 247.039062 377.457031 234.328125 392.644531 C 275.941406 433.488281 315.859375 472.65625 356.601562 512.636719 Z M 356.601562 512.636719 " fill-opacity="1" fill-rule="nonzero"/></g><g clip-path="url(#084ac15554)"><g clip-path="url(#49989d7a77)"><g transform="matrix(1, 0, 0, 1, 201, 209)"><g clip-path="url(#bd4344cb41)"><g clip-path="url(#058173d89c)"><g clip-path="url(#e08d114390)"><path fill="#ffffff" d="M 0.175781 0.0390625 L 359.488281 0.0390625 L 359.488281 359.351562 L 0.175781 359.351562 Z M 0.175781 0.0390625 " fill-opacity="1" fill-rule="nonzero"/></g></g></g></g></g></g><g clip-path="url(#321601ea50)"><path fill="#0a714e" d="M 536.980469 323.371094 L 496.800781 283.195312 L 341.574219 437.511719 L 269.4375 366.289062 L 229.261719 406.464844 C 266.699219 443.902344 304.136719 481.339844 341.574219 518.777344 Z M 536.980469 323.371094 " fill-opacity="1" fill-rule="evenodd"/></g></svg>