<svg xmlns="http://www.w3.org/2000/svg" xmlns:xlink="http://www.w3.org/1999/xlink" width="1200" zoomAndPan="magnify" viewBox="0 0 900 299.999988" height="400" preserveAspectRatio="xMidYMid meet" version="1.0"><defs><g/><clipPath id="7124bed2b1"><path d="M 168 0.441406 L 833.800781 0.441406 L 833.800781 153.800781 L 168 153.800781 Z M 168 0.441406 " clip-rule="nonzero"/></clipPath><clipPath id="b4737f6358"><rect x="0" width="666" y="0" height="154"/></clipPath><clipPath id="319de95c50"><path d="M 20.914062 36.503906 L 110.734375 36.503906 L 110.734375 126.324219 L 20.914062 126.324219 Z M 20.914062 36.503906 " clip-rule="nonzero"/></clipPath><clipPath id="f479e97e67"><path d="M 65.824219 36.503906 C 41.019531 36.503906 20.914062 56.609375 20.914062 81.414062 C 20.914062 106.214844 41.019531 126.324219 65.824219 126.324219 C 90.628906 126.324219 110.734375 106.214844 110.734375 81.414062 C 110.734375 56.609375 90.628906 36.503906 65.824219 36.503906 Z M 65.824219 36.503906 " clip-rule="nonzero"/></clipPath><clipPath id="9bad733c04"><path d="M 0.914062 0.503906 L 90.734375 0.503906 L 90.734375 90.324219 L 0.914062 90.324219 Z M 0.914062 0.503906 " clip-rule="nonzero"/></clipPath><clipPath id="84f7304ed6"><path d="M 45.824219 0.503906 C 21.019531 0.503906 0.914062 20.609375 0.914062 45.414062 C 0.914062 70.214844 21.019531 90.324219 45.824219 90.324219 C 70.628906 90.324219 90.734375 70.214844 90.734375 45.414062 C 90.734375 20.609375 70.628906 0.503906 45.824219 0.503906 Z M 45.824219 0.503906 " clip-rule="nonzero"/></clipPath><clipPath id="46ea6e937c"><rect x="0" width="91" y="0" height="91"/></clipPath><clipPath id="6e56443560"><path d="M 1 11 L 129.648438 11 L 129.648438 151.253906 L 1 151.253906 Z M 1 11 " clip-rule="nonzero"/></clipPath><clipPath id="1790e93b53"><rect x="0" width="834" y="0" height="154"/></clipPath></defs><g transform="matrix(1, 0, 0, 1, 29, 73)"><g clip-path="url(#1790e93b53)"><g clip-path="url(#7124bed2b1)"><g transform="matrix(1, 0, 0, 1, 168, 0)"><g clip-path="url(#b4737f6358)"><g fill="#ffffff" fill-opacity="1"><g transform="translate(0.510978, 122.811553)"><g><path d="M 2.59375 0 L 34.75 -91.796875 L 55.5625 -91.796875 L 88.28125 0 L 70.296875 0 L 54.03125 -47.8125 C 52.425781 -52.78125 50.75 -58.3125 49 -64.40625 C 47.257812 -70.507812 45.320312 -77.523438 43.1875 -85.453125 L 46.890625 -85.453125 C 44.785156 -77.484375 42.890625 -70.425781 41.203125 -64.28125 C 39.523438 -58.144531 37.925781 -52.65625 36.40625 -47.8125 L 20.453125 0 Z M 21.375 -22.546875 L 21.375 -35.859375 L 69.4375 -35.859375 L 69.4375 -22.546875 Z M 21.375 -22.546875 "/></g></g></g><g fill="#ffffff" fill-opacity="1"><g transform="translate(91.376208, 122.811553)"><g><path d="M 8.125 0 L 8.125 -68.015625 L 23.171875 -68.015625 L 23.65625 -52 L 22.484375 -52 C 23.515625 -55.9375 25.066406 -59.164062 27.140625 -61.6875 C 29.210938 -64.21875 31.632812 -66.097656 34.40625 -67.328125 C 37.175781 -68.566406 40.082031 -69.1875 43.125 -69.1875 C 48.09375 -69.1875 52.164062 -67.644531 55.34375 -64.5625 C 58.53125 -61.476562 60.703125 -57.082031 61.859375 -51.375 L 59.9375 -51.375 C 60.882812 -55.238281 62.46875 -58.492188 64.6875 -61.140625 C 66.90625 -63.796875 69.570312 -65.800781 72.6875 -67.15625 C 75.8125 -68.507812 79.160156 -69.1875 82.734375 -69.1875 C 86.847656 -69.1875 90.554688 -68.28125 93.859375 -66.46875 C 97.160156 -64.664062 99.765625 -62.03125 101.671875 -58.5625 C 103.585938 -55.09375 104.546875 -50.789062 104.546875 -45.65625 L 104.546875 0 L 88.65625 0 L 88.65625 -43.25 C 88.65625 -47.519531 87.484375 -50.648438 85.140625 -52.640625 C 82.796875 -54.628906 79.984375 -55.625 76.703125 -55.625 C 74.109375 -55.625 71.867188 -55.066406 69.984375 -53.953125 C 68.097656 -52.847656 66.648438 -51.3125 65.640625 -49.34375 C 64.640625 -47.375 64.140625 -45.097656 64.140625 -42.515625 L 64.140625 0 L 48.609375 0 L 48.609375 -43.984375 C 48.609375 -47.515625 47.507812 -50.335938 45.3125 -52.453125 C 43.113281 -54.566406 40.3125 -55.625 36.90625 -55.625 C 34.5625 -55.625 32.410156 -55.078125 30.453125 -53.984375 C 28.503906 -52.898438 26.945312 -51.3125 25.78125 -49.21875 C 24.613281 -47.125 24.03125 -44.539062 24.03125 -41.46875 L 24.03125 0 Z M 8.125 0 "/></g></g></g><g fill="#ffffff" fill-opacity="1"><g transform="translate(204.049092, 122.811553)"><g><path d="M 40.53125 -68.015625 L 40.53125 -55.515625 L 1.171875 -55.515625 L 1.171875 -68.015625 Z M 11.328125 -84.703125 L 27.234375 -84.703125 L 27.234375 -19.21875 C 27.234375 -16.800781 27.753906 -15.035156 28.796875 -13.921875 C 29.847656 -12.816406 31.601562 -12.265625 34.0625 -12.265625 C 34.84375 -12.265625 35.847656 -12.320312 37.078125 -12.4375 C 38.316406 -12.5625 39.304688 -12.6875 40.046875 -12.8125 L 42.015625 -0.4375 C 40.410156 -0.0195312 38.703125 0.273438 36.890625 0.453125 C 35.085938 0.640625 33.328125 0.734375 31.609375 0.734375 C 24.992188 0.734375 19.957031 -0.84375 16.5 -4 C 13.050781 -7.164062 11.328125 -11.726562 11.328125 -17.6875 Z M 11.328125 -84.703125 "/></g></g></g><g fill="#ffffff" fill-opacity="1"><g transform="translate(247.47958, 122.811553)"><g><path d="M 34.0625 1.421875 C 28.8125 1.421875 24.128906 0.648438 20.015625 -0.890625 C 15.910156 -2.429688 12.5625 -4.691406 9.96875 -7.671875 C 7.382812 -10.648438 5.742188 -14.273438 5.046875 -18.546875 L 20.140625 -20.765625 C 20.921875 -17.390625 22.503906 -14.867188 24.890625 -13.203125 C 27.273438 -11.546875 30.394531 -10.71875 34.25 -10.71875 C 38.15625 -10.71875 41.242188 -11.5 43.515625 -13.0625 C 45.796875 -14.625 46.9375 -16.554688 46.9375 -18.859375 C 46.9375 -20.828125 46.164062 -22.445312 44.625 -23.71875 C 43.09375 -24.988281 40.804688 -25.953125 37.765625 -26.609375 L 26.1875 -29.078125 C 19.738281 -30.472656 14.910156 -32.769531 11.703125 -35.96875 C 8.503906 -39.175781 6.90625 -43.285156 6.90625 -48.296875 C 6.90625 -52.484375 8.050781 -56.128906 10.34375 -59.234375 C 12.644531 -62.335938 15.847656 -64.738281 19.953125 -66.4375 C 24.066406 -68.144531 28.851562 -69 34.3125 -69 C 39.53125 -69 44.035156 -68.226562 47.828125 -66.6875 C 51.628906 -65.144531 54.691406 -62.988281 57.015625 -60.21875 C 59.335938 -57.445312 60.867188 -54.171875 61.609375 -50.390625 L 47.25 -48.234375 C 46.632812 -50.703125 45.28125 -52.796875 43.1875 -54.515625 C 41.09375 -56.242188 38.21875 -57.109375 34.5625 -57.109375 C 31.15625 -57.109375 28.34375 -56.359375 26.125 -54.859375 C 23.90625 -53.359375 22.796875 -51.457031 22.796875 -49.15625 C 22.796875 -47.144531 23.554688 -45.503906 25.078125 -44.234375 C 26.597656 -42.960938 29.019531 -41.957031 32.34375 -41.21875 L 44.046875 -38.75 C 50.535156 -37.351562 55.347656 -35.132812 58.484375 -32.09375 C 61.628906 -29.050781 63.203125 -25.128906 63.203125 -20.328125 C 63.203125 -15.972656 61.957031 -12.171875 59.46875 -8.921875 C 56.988281 -5.679688 53.5625 -3.144531 49.1875 -1.3125 C 44.8125 0.507812 39.769531 1.421875 34.0625 1.421875 Z M 34.0625 1.421875 "/></g></g></g><g fill="#ffffff" fill-opacity="1"><g transform="translate(315.551486, 122.811553)"><g><path d="M 41.34375 1.421875 C 34.15625 1.421875 27.910156 0.28125 22.609375 -2 C 17.304688 -4.28125 13.1875 -7.585938 10.25 -11.921875 C 7.320312 -16.253906 5.753906 -21.5 5.546875 -27.65625 L 21.6875 -27.65625 C 21.9375 -24.332031 22.910156 -21.550781 24.609375 -19.3125 C 26.316406 -17.070312 28.617188 -15.382812 31.515625 -14.25 C 34.410156 -13.125 37.664062 -12.5625 41.28125 -12.5625 C 44.9375 -12.5625 48.148438 -13.101562 50.921875 -14.1875 C 53.691406 -15.28125 55.867188 -16.832031 57.453125 -18.84375 C 59.035156 -20.863281 59.828125 -23.1875 59.828125 -25.8125 C 59.828125 -28.15625 59.15625 -30.101562 57.8125 -31.65625 C 56.476562 -33.21875 54.566406 -34.550781 52.078125 -35.65625 C 49.597656 -36.769531 46.613281 -37.757812 43.125 -38.625 L 32.84375 -41.21875 C 24.832031 -43.1875 18.671875 -46.179688 14.359375 -50.203125 C 10.046875 -54.234375 7.890625 -59.492188 7.890625 -65.984375 C 7.890625 -71.398438 9.335938 -76.140625 12.234375 -80.203125 C 15.128906 -84.273438 19.113281 -87.441406 24.1875 -89.703125 C 29.257812 -91.960938 35.019531 -93.09375 41.46875 -93.09375 C 48.070312 -93.09375 53.835938 -91.953125 58.765625 -89.671875 C 63.703125 -87.390625 67.566406 -84.210938 70.359375 -80.140625 C 73.148438 -76.078125 74.609375 -71.378906 74.734375 -66.046875 L 58.890625 -66.046875 C 58.484375 -70.191406 56.707031 -73.414062 53.5625 -75.71875 C 50.425781 -78.019531 46.332031 -79.171875 41.28125 -79.171875 C 37.863281 -79.171875 34.890625 -78.632812 32.359375 -77.5625 C 29.835938 -76.5 27.890625 -75.050781 26.515625 -73.21875 C 25.140625 -71.394531 24.453125 -69.289062 24.453125 -66.90625 C 24.453125 -64.4375 25.191406 -62.398438 26.671875 -60.796875 C 28.148438 -59.203125 30.097656 -57.890625 32.515625 -56.859375 C 34.941406 -55.835938 37.554688 -55 40.359375 -54.34375 L 49.09375 -52.125 C 52.789062 -51.257812 56.269531 -50.128906 59.53125 -48.734375 C 62.800781 -47.335938 65.6875 -45.59375 68.1875 -43.5 C 70.695312 -41.40625 72.660156 -38.921875 74.078125 -36.046875 C 75.492188 -33.171875 76.203125 -29.800781 76.203125 -25.9375 C 76.203125 -20.476562 74.816406 -15.691406 72.046875 -11.578125 C 69.273438 -7.472656 65.289062 -4.28125 60.09375 -2 C 54.894531 0.28125 48.644531 1.421875 41.34375 1.421875 Z M 41.34375 1.421875 "/></g></g></g><g fill="#ffffff" fill-opacity="1"><g transform="translate(397.299424, 122.811553)"><g><path d="M 37.765625 1.421875 C 31.148438 1.421875 25.398438 -0.046875 20.515625 -2.984375 C 15.628906 -5.921875 11.835938 -10.035156 9.140625 -15.328125 C 6.453125 -20.628906 5.109375 -26.773438 5.109375 -33.765625 C 5.109375 -40.785156 6.453125 -46.941406 9.140625 -52.234375 C 11.835938 -57.535156 15.628906 -61.65625 20.515625 -64.59375 C 25.398438 -67.53125 31.148438 -69 37.765625 -69 C 41.671875 -69 45.285156 -68.484375 48.609375 -67.453125 C 51.929688 -66.429688 54.882812 -64.941406 57.46875 -62.984375 C 60.0625 -61.035156 62.207031 -58.6875 63.90625 -55.9375 C 65.613281 -53.1875 66.796875 -50.109375 67.453125 -46.703125 L 52.359375 -44.296875 C 51.992188 -46.054688 51.390625 -47.65625 50.546875 -49.09375 C 49.703125 -50.53125 48.675781 -51.765625 47.46875 -52.796875 C 46.257812 -53.828125 44.851562 -54.628906 43.25 -55.203125 C 41.644531 -55.773438 39.859375 -56.0625 37.890625 -56.0625 C 34.234375 -56.0625 31.179688 -55.09375 28.734375 -53.15625 C 26.296875 -51.226562 24.445312 -48.59375 23.1875 -45.25 C 21.9375 -41.90625 21.3125 -38.078125 21.3125 -33.765625 C 21.3125 -29.535156 21.9375 -25.742188 23.1875 -22.390625 C 24.445312 -19.046875 26.296875 -16.40625 28.734375 -14.46875 C 31.179688 -12.539062 34.234375 -11.578125 37.890625 -11.578125 C 39.859375 -11.578125 41.65625 -11.863281 43.28125 -12.4375 C 44.90625 -13.019531 46.332031 -13.832031 47.5625 -14.875 C 48.789062 -15.925781 49.828125 -17.210938 50.671875 -18.734375 C 51.515625 -20.253906 52.117188 -21.9375 52.484375 -23.78125 L 67.578125 -21.3125 C 66.960938 -17.820312 65.789062 -14.691406 64.0625 -11.921875 C 62.34375 -9.148438 60.1875 -6.765625 57.59375 -4.765625 C 55.007812 -2.773438 52.039062 -1.242188 48.6875 -0.171875 C 45.34375 0.890625 41.703125 1.421875 37.765625 1.421875 Z M 37.765625 1.421875 "/></g></g></g><g fill="#ffffff" fill-opacity="1"><g transform="translate(469.745193, 122.811553)"><g><path d="M 37.828125 1.421875 C 31.210938 1.421875 25.453125 -0.046875 20.546875 -2.984375 C 15.640625 -5.921875 11.835938 -10.023438 9.140625 -15.296875 C 6.453125 -20.578125 5.109375 -26.734375 5.109375 -33.765625 C 5.109375 -40.785156 6.453125 -46.941406 9.140625 -52.234375 C 11.835938 -57.535156 15.640625 -61.65625 20.546875 -64.59375 C 25.453125 -67.53125 31.210938 -69 37.828125 -69 C 44.484375 -69 50.265625 -67.53125 55.171875 -64.59375 C 60.078125 -61.65625 63.875 -57.535156 66.5625 -52.234375 C 69.257812 -46.941406 70.609375 -40.785156 70.609375 -33.765625 C 70.609375 -26.734375 69.257812 -20.578125 66.5625 -15.296875 C 63.875 -10.023438 60.078125 -5.921875 55.171875 -2.984375 C 50.265625 -0.046875 44.484375 1.421875 37.828125 1.421875 Z M 37.828125 -11.578125 C 41.484375 -11.578125 44.539062 -12.550781 47 -14.5 C 49.46875 -16.457031 51.328125 -19.109375 52.578125 -22.453125 C 53.828125 -25.804688 54.453125 -29.578125 54.453125 -33.765625 C 54.453125 -38.035156 53.828125 -41.84375 52.578125 -45.1875 C 51.328125 -48.53125 49.46875 -51.164062 47 -53.09375 C 44.539062 -55.03125 41.484375 -56 37.828125 -56 C 34.210938 -56 31.171875 -55.03125 28.703125 -53.09375 C 26.242188 -51.164062 24.394531 -48.53125 23.15625 -45.1875 C 21.925781 -41.84375 21.3125 -38.035156 21.3125 -33.765625 C 21.3125 -29.578125 21.925781 -25.804688 23.15625 -22.453125 C 24.394531 -19.109375 26.242188 -16.457031 28.703125 -14.5 C 31.171875 -12.550781 34.210938 -11.578125 37.828125 -11.578125 Z M 37.828125 -11.578125 "/></g></g></g><g fill="#ffffff" fill-opacity="1"><g transform="translate(545.455915, 122.811553)"><g><path d="M 8.125 0 L 8.125 -68.015625 L 23.53125 -68.015625 L 23.53125 -56.671875 L 24.15625 -56.671875 C 25.382812 -60.617188 27.476562 -63.640625 30.4375 -65.734375 C 33.394531 -67.828125 36.882812 -68.875 40.90625 -68.875 C 41.851562 -68.875 42.847656 -68.84375 43.890625 -68.78125 C 44.941406 -68.71875 45.835938 -68.625 46.578125 -68.5 L 46.578125 -53.96875 C 45.921875 -54.132812 44.863281 -54.296875 43.40625 -54.453125 C 41.945312 -54.617188 40.5 -54.703125 39.0625 -54.703125 C 36.226562 -54.703125 33.671875 -54.085938 31.390625 -52.859375 C 29.109375 -51.628906 27.3125 -49.894531 26 -47.65625 C 24.6875 -45.414062 24.03125 -42.753906 24.03125 -39.671875 L 24.03125 0 Z M 8.125 0 "/></g></g></g><g fill="#ffffff" fill-opacity="1"><g transform="translate(592.028196, 122.811553)"><g><path d="M 38.203125 1.421875 C 31.378906 1.421875 25.492188 -0.0351562 20.546875 -2.953125 C 15.597656 -5.867188 11.785156 -9.957031 9.109375 -15.21875 C 6.441406 -20.476562 5.109375 -26.640625 5.109375 -33.703125 C 5.109375 -40.640625 6.429688 -46.765625 9.078125 -52.078125 C 11.734375 -57.398438 15.472656 -61.550781 20.296875 -64.53125 C 25.117188 -67.507812 30.753906 -69 37.203125 -69 C 41.515625 -69 45.570312 -68.289062 49.375 -66.875 C 53.175781 -65.457031 56.523438 -63.320312 59.421875 -60.46875 C 62.316406 -57.613281 64.582031 -54.019531 66.21875 -49.6875 C 67.863281 -45.351562 68.6875 -40.269531 68.6875 -34.4375 L 68.6875 -29.640625 L 12.390625 -29.640625 L 12.390625 -40.46875 L 60.75 -40.46875 L 53.359375 -37.328125 C 53.359375 -41.191406 52.738281 -44.5625 51.5 -47.4375 C 50.269531 -50.3125 48.472656 -52.539062 46.109375 -54.125 C 43.753906 -55.707031 40.828125 -56.5 37.328125 -56.5 C 33.878906 -56.5 30.921875 -55.695312 28.453125 -54.09375 C 25.992188 -52.488281 24.117188 -50.300781 22.828125 -47.53125 C 21.535156 -44.757812 20.890625 -41.648438 20.890625 -38.203125 L 20.890625 -30.859375 C 20.890625 -26.628906 21.609375 -23.035156 23.046875 -20.078125 C 24.484375 -17.117188 26.523438 -14.878906 29.171875 -13.359375 C 31.816406 -11.847656 34.90625 -11.09375 38.4375 -11.09375 C 40.820312 -11.09375 42.976562 -11.441406 44.90625 -12.140625 C 46.84375 -12.835938 48.5 -13.851562 49.875 -15.1875 C 51.25 -16.519531 52.285156 -18.148438 52.984375 -20.078125 L 67.640625 -17.75 C 66.617188 -13.925781 64.757812 -10.578125 62.0625 -7.703125 C 59.375 -4.828125 55.992188 -2.585938 51.921875 -0.984375 C 47.859375 0.617188 43.285156 1.421875 38.203125 1.421875 Z M 38.203125 1.421875 "/></g></g></g></g></g></g><g clip-path="url(#319de95c50)"><g clip-path="url(#f479e97e67)"><g transform="matrix(1, 0, 0, 1, 20, 36)"><g clip-path="url(#46ea6e937c)"><g clip-path="url(#9bad733c04)"><g clip-path="url(#84f7304ed6)"><path fill="#ffffff" d="M 0.914062 0.503906 L 90.734375 0.503906 L 90.734375 90.324219 L 0.914062 90.324219 Z M 0.914062 0.503906 " fill-opacity="1" fill-rule="nonzero"/></g></g></g></g></g></g><g clip-path="url(#6e56443560)"><path fill="#1a3da5" d="M 1.648438 43.519531 C 6.550781 42.839844 10.894531 42.472656 15.132812 41.605469 C 23.613281 39.867188 31.179688 35.9375 38.171875 30.964844 C 46.105469 25.320312 53.863281 19.429688 61.71875 13.675781 C 65.699219 10.757812 65.734375 10.757812 69.808594 13.742188 C 77.523438 19.394531 85.140625 25.179688 92.925781 30.734375 C 103.035156 37.941406 114.125 42.574219 126.742188 43.007812 C 129.910156 43.117188 130.480469 43.667969 130.453125 46.722656 C 130.296875 63.953125 129.832031 81.175781 125.179688 97.9375 C 119.742188 117.53125 108.214844 132.453125 90.230469 142 C 83.503906 145.570312 76.289062 148.238281 69.207031 151.082031 C 67.546875 151.75 65.324219 152.042969 63.667969 151.527344 C 49.601562 147.136719 36.460938 140.964844 25.539062 130.75 C 14.039062 119.992188 7.824219 106.417969 4.621094 91.296875 C 1.46875 76.410156 1.015625 61.289062 1.105469 46.136719 C 1.109375 45.320312 1.4375 44.503906 1.648438 43.519531 Z M 59.019531 112.9375 C 65.859375 106.210938 100.183594 63.140625 101.746094 59.292969 C 98.316406 56.414062 94.804688 53.464844 91.058594 50.316406 C 79.84375 63.925781 69.054688 77.019531 58.0625 90.355469 C 54.480469 86.976562 51.386719 83.933594 48.15625 81.046875 C 44.984375 78.210938 42.328125 74.738281 38.222656 72.550781 C 35.113281 76.265625 32.160156 79.796875 29.042969 83.519531 C 39.246094 93.535156 49.03125 103.136719 59.019531 112.9375 Z M 59.019531 112.9375 " fill-opacity="1" fill-rule="nonzero"/></g></g></g></svg>