<svg xmlns="http://www.w3.org/2000/svg" xmlns:xlink="http://www.w3.org/1999/xlink" width="1200" zoomAndPan="magnify" viewBox="0 0 900 299.999988" height="400" preserveAspectRatio="xMidYMid meet" version="1.0"><defs><g/><clipPath id="c277cd0ca1"><path d="M 168 0.199219 L 833.558594 0.199219 L 833.558594 153.800781 L 168 153.800781 Z M 168 0.199219 " clip-rule="nonzero"/></clipPath><clipPath id="375e8afc1a"><rect x="0" width="666" y="0" height="154"/></clipPath><clipPath id="4e3db1a17b"><path d="M 20.914062 36.503906 L 110.734375 36.503906 L 110.734375 126.324219 L 20.914062 126.324219 Z M 20.914062 36.503906 " clip-rule="nonzero"/></clipPath><clipPath id="f625411f33"><path d="M 65.824219 36.503906 C 41.019531 36.503906 20.914062 56.609375 20.914062 81.414062 C 20.914062 106.214844 41.019531 126.324219 65.824219 126.324219 C 90.628906 126.324219 110.734375 106.214844 110.734375 81.414062 C 110.734375 56.609375 90.628906 36.503906 65.824219 36.503906 Z M 65.824219 36.503906 " clip-rule="nonzero"/></clipPath><clipPath id="7a9cf675ac"><path d="M 0.914062 0.503906 L 90.734375 0.503906 L 90.734375 90.324219 L 0.914062 90.324219 Z M 0.914062 0.503906 " clip-rule="nonzero"/></clipPath><clipPath id="121918464a"><path d="M 45.824219 0.503906 C 21.019531 0.503906 0.914062 20.609375 0.914062 45.414062 C 0.914062 70.214844 21.019531 90.324219 45.824219 90.324219 C 70.628906 90.324219 90.734375 70.214844 90.734375 45.414062 C 90.734375 20.609375 70.628906 0.503906 45.824219 0.503906 Z M 45.824219 0.503906 " clip-rule="nonzero"/></clipPath><clipPath id="3e011c2acb"><rect x="0" width="91" y="0" height="91"/></clipPath><clipPath id="983d71f0fb"><path d="M 1 11 L 129.648438 11 L 129.648438 151.253906 L 1 151.253906 Z M 1 11 " clip-rule="nonzero"/></clipPath><clipPath id="7bf9d90521"><rect x="0" width="834" y="0" height="154"/></clipPath></defs><g transform="matrix(1, 0, 0, 1, 29, 73)"><g clip-path="url(#7bf9d90521)"><g clip-path="url(#c277cd0ca1)"><g transform="matrix(1, 0, 0, 1, 168, 0)"><g clip-path="url(#375e8afc1a)"><g fill="#000000" fill-opacity="1"><g transform="translate(0.510978, 122.671065)"><g><path d="M 2.59375 0 L 34.75 -91.78125 L 55.5625 -91.78125 L 88.265625 0 L 70.28125 0 L 54.015625 -47.796875 C 52.421875 -52.765625 50.75 -58.296875 49 -64.390625 C 47.257812 -70.492188 45.320312 -77.507812 43.1875 -85.4375 L 46.875 -85.4375 C 44.78125 -77.46875 42.890625 -70.410156 41.203125 -64.265625 C 39.523438 -58.128906 37.925781 -52.640625 36.40625 -47.796875 L 20.453125 0 Z M 21.375 -22.546875 L 21.375 -35.84375 L 69.421875 -35.84375 L 69.421875 -22.546875 Z M 21.375 -22.546875 "/></g></g></g><g fill="#000000" fill-opacity="1"><g transform="translate(91.357314, 122.671065)"><g><path d="M 8.125 0 L 8.125 -68 L 23.15625 -68 L 23.65625 -51.984375 L 22.484375 -51.984375 C 23.515625 -55.929688 25.066406 -59.164062 27.140625 -61.6875 C 29.210938 -64.21875 31.632812 -66.097656 34.40625 -67.328125 C 37.175781 -68.554688 40.082031 -69.171875 43.125 -69.171875 C 48.09375 -69.171875 52.164062 -67.628906 55.34375 -64.546875 C 58.53125 -61.472656 60.695312 -57.082031 61.84375 -51.375 L 59.9375 -51.375 C 60.882812 -55.238281 62.460938 -58.492188 64.671875 -61.140625 C 66.890625 -63.785156 69.5625 -65.785156 72.6875 -67.140625 C 75.8125 -68.492188 79.160156 -69.171875 82.734375 -69.171875 C 86.835938 -69.171875 90.539062 -68.265625 93.84375 -66.453125 C 97.15625 -64.648438 99.765625 -62.015625 101.671875 -58.546875 C 103.578125 -55.078125 104.53125 -50.773438 104.53125 -45.640625 L 104.53125 0 L 88.640625 0 L 88.640625 -43.25 C 88.640625 -47.519531 87.46875 -50.648438 85.125 -52.640625 C 82.789062 -54.628906 79.976562 -55.625 76.6875 -55.625 C 74.101562 -55.625 71.863281 -55.066406 69.96875 -53.953125 C 68.082031 -52.847656 66.632812 -51.3125 65.625 -49.34375 C 64.625 -47.375 64.125 -45.09375 64.125 -42.5 L 64.125 0 L 48.609375 0 L 48.609375 -43.984375 C 48.609375 -47.515625 47.507812 -50.335938 45.3125 -52.453125 C 43.113281 -54.566406 40.304688 -55.625 36.890625 -55.625 C 34.554688 -55.625 32.410156 -55.078125 30.453125 -53.984375 C 28.503906 -52.898438 26.945312 -51.3125 25.78125 -49.21875 C 24.613281 -47.125 24.03125 -44.535156 24.03125 -41.453125 L 24.03125 0 Z M 8.125 0 "/></g></g></g><g fill="#000000" fill-opacity="1"><g transform="translate(204.006766, 122.671065)"><g><path d="M 40.53125 -68 L 40.53125 -55.5 L 1.171875 -55.5 L 1.171875 -68 Z M 11.328125 -84.703125 L 27.234375 -84.703125 L 27.234375 -19.21875 C 27.234375 -16.789062 27.753906 -15.023438 28.796875 -13.921875 C 29.847656 -12.816406 31.601562 -12.265625 34.0625 -12.265625 C 34.84375 -12.265625 35.847656 -12.320312 37.078125 -12.4375 C 38.316406 -12.5625 39.304688 -12.6875 40.046875 -12.8125 L 42.015625 -0.4375 C 40.410156 -0.0195312 38.703125 0.273438 36.890625 0.453125 C 35.085938 0.640625 33.320312 0.734375 31.59375 0.734375 C 24.988281 0.734375 19.957031 -0.84375 16.5 -4 C 13.050781 -7.164062 11.328125 -11.722656 11.328125 -17.671875 Z M 11.328125 -84.703125 "/></g></g></g><g fill="#000000" fill-opacity="1"><g transform="translate(247.428019, 122.671065)"><g><path d="M 34.0625 1.421875 C 28.8125 1.421875 24.128906 0.648438 20.015625 -0.890625 C 15.910156 -2.429688 12.5625 -4.691406 9.96875 -7.671875 C 7.382812 -10.648438 5.742188 -14.273438 5.046875 -18.546875 L 20.140625 -20.765625 C 20.921875 -17.390625 22.5 -14.867188 24.875 -13.203125 C 27.257812 -11.546875 30.382812 -10.71875 34.25 -10.71875 C 38.144531 -10.71875 41.234375 -11.5 43.515625 -13.0625 C 45.796875 -14.625 46.9375 -16.550781 46.9375 -18.84375 C 46.9375 -20.820312 46.164062 -22.445312 44.625 -23.71875 C 43.082031 -24.988281 40.796875 -25.953125 37.765625 -26.609375 L 26.1875 -29.078125 C 19.738281 -30.472656 14.910156 -32.769531 11.703125 -35.96875 C 8.503906 -39.175781 6.90625 -43.285156 6.90625 -48.296875 C 6.90625 -52.484375 8.050781 -56.125 10.34375 -59.21875 C 12.644531 -62.320312 15.847656 -64.722656 19.953125 -66.421875 C 24.066406 -68.128906 28.851562 -68.984375 34.3125 -68.984375 C 39.53125 -68.984375 44.035156 -68.210938 47.828125 -66.671875 C 51.628906 -65.140625 54.6875 -62.988281 57 -60.21875 C 59.320312 -57.445312 60.851562 -54.171875 61.59375 -50.390625 L 47.25 -48.234375 C 46.632812 -50.691406 45.28125 -52.785156 43.1875 -54.515625 C 41.09375 -56.242188 38.21875 -57.109375 34.5625 -57.109375 C 31.144531 -57.109375 28.328125 -56.359375 26.109375 -54.859375 C 23.898438 -53.359375 22.796875 -51.457031 22.796875 -49.15625 C 22.796875 -47.144531 23.550781 -45.5 25.0625 -44.21875 C 26.582031 -42.945312 29.007812 -41.941406 32.34375 -41.203125 L 44.046875 -38.75 C 50.535156 -37.351562 55.347656 -35.132812 58.484375 -32.09375 C 61.628906 -29.050781 63.203125 -25.128906 63.203125 -20.328125 C 63.203125 -15.972656 61.957031 -12.171875 59.46875 -8.921875 C 56.988281 -5.679688 53.5625 -3.144531 49.1875 -1.3125 C 44.8125 0.507812 39.769531 1.421875 34.0625 1.421875 Z M 34.0625 1.421875 "/></g></g></g><g fill="#000000" fill-opacity="1"><g transform="translate(315.485786, 122.671065)"><g><path d="M 41.328125 1.421875 C 34.140625 1.421875 27.894531 0.28125 22.59375 -2 C 17.300781 -4.28125 13.1875 -7.585938 10.25 -11.921875 C 7.320312 -16.253906 5.753906 -21.5 5.546875 -27.65625 L 21.6875 -27.65625 C 21.925781 -24.332031 22.898438 -21.550781 24.609375 -19.3125 C 26.316406 -17.070312 28.613281 -15.382812 31.5 -14.25 C 34.394531 -13.125 37.648438 -12.5625 41.265625 -12.5625 C 44.921875 -12.5625 48.132812 -13.101562 50.90625 -14.1875 C 53.675781 -15.28125 55.851562 -16.832031 57.4375 -18.84375 C 59.019531 -20.863281 59.8125 -23.1875 59.8125 -25.8125 C 59.8125 -28.15625 59.144531 -30.101562 57.8125 -31.65625 C 56.476562 -33.21875 54.566406 -34.550781 52.078125 -35.65625 C 49.597656 -36.769531 46.613281 -37.757812 43.125 -38.625 L 32.828125 -41.203125 C 24.828125 -43.179688 18.671875 -46.179688 14.359375 -50.203125 C 10.046875 -54.222656 7.890625 -59.476562 7.890625 -65.96875 C 7.890625 -71.394531 9.335938 -76.140625 12.234375 -80.203125 C 15.128906 -84.265625 19.109375 -87.425781 24.171875 -89.6875 C 29.242188 -91.945312 35.003906 -93.078125 41.453125 -93.078125 C 48.066406 -93.078125 53.835938 -91.9375 58.765625 -89.65625 C 63.691406 -87.375 67.550781 -84.203125 70.34375 -80.140625 C 73.132812 -76.078125 74.59375 -71.375 74.71875 -66.03125 L 58.890625 -66.03125 C 58.472656 -70.175781 56.691406 -73.398438 53.546875 -75.703125 C 50.410156 -78.003906 46.316406 -79.15625 41.265625 -79.15625 C 37.859375 -79.15625 34.890625 -78.617188 32.359375 -77.546875 C 29.835938 -76.484375 27.890625 -75.035156 26.515625 -73.203125 C 25.140625 -71.378906 24.453125 -69.273438 24.453125 -66.890625 C 24.453125 -64.429688 25.191406 -62.398438 26.671875 -60.796875 C 28.148438 -59.191406 30.097656 -57.875 32.515625 -56.84375 C 34.941406 -55.820312 37.550781 -54.984375 40.34375 -54.328125 L 49.09375 -52.109375 C 52.789062 -51.242188 56.269531 -50.113281 59.53125 -48.71875 C 62.800781 -47.320312 65.6875 -45.578125 68.1875 -43.484375 C 70.695312 -41.390625 72.660156 -38.90625 74.078125 -36.03125 C 75.492188 -33.15625 76.203125 -29.789062 76.203125 -25.9375 C 76.203125 -20.46875 74.816406 -15.679688 72.046875 -11.578125 C 69.273438 -7.472656 65.289062 -4.28125 60.09375 -2 C 54.894531 0.28125 48.640625 1.421875 41.328125 1.421875 Z M 41.328125 1.421875 "/></g></g></g><g fill="#000000" fill-opacity="1"><g transform="translate(397.216693, 122.671065)"><g><path d="M 37.765625 1.421875 C 31.148438 1.421875 25.398438 -0.046875 20.515625 -2.984375 C 15.628906 -5.921875 11.835938 -10.035156 9.140625 -15.328125 C 6.453125 -20.628906 5.109375 -26.769531 5.109375 -33.75 C 5.109375 -40.78125 6.453125 -46.941406 9.140625 -52.234375 C 11.835938 -57.535156 15.628906 -61.648438 20.515625 -64.578125 C 25.398438 -67.515625 31.148438 -68.984375 37.765625 -68.984375 C 41.660156 -68.984375 45.269531 -68.46875 48.59375 -67.4375 C 51.925781 -66.414062 54.882812 -64.929688 57.46875 -62.984375 C 60.0625 -61.035156 62.207031 -58.6875 63.90625 -55.9375 C 65.613281 -53.1875 66.796875 -50.101562 67.453125 -46.6875 L 52.359375 -44.296875 C 51.992188 -46.054688 51.390625 -47.65625 50.546875 -49.09375 C 49.703125 -50.53125 48.671875 -51.757812 47.453125 -52.78125 C 46.242188 -53.8125 44.835938 -54.613281 43.234375 -55.1875 C 41.640625 -55.769531 39.859375 -56.0625 37.890625 -56.0625 C 34.234375 -56.0625 31.179688 -55.09375 28.734375 -53.15625 C 26.296875 -51.226562 24.445312 -48.585938 23.1875 -45.234375 C 21.9375 -41.890625 21.3125 -38.0625 21.3125 -33.75 C 21.3125 -29.519531 21.9375 -25.734375 23.1875 -22.390625 C 24.445312 -19.046875 26.296875 -16.40625 28.734375 -14.46875 C 31.179688 -12.539062 34.234375 -11.578125 37.890625 -11.578125 C 39.859375 -11.578125 41.648438 -11.863281 43.265625 -12.4375 C 44.890625 -13.019531 46.316406 -13.832031 47.546875 -14.875 C 48.785156 -15.925781 49.820312 -17.207031 50.65625 -18.71875 C 51.5 -20.238281 52.109375 -21.925781 52.484375 -23.78125 L 67.578125 -21.3125 C 66.960938 -17.820312 65.789062 -14.691406 64.0625 -11.921875 C 62.332031 -9.148438 60.175781 -6.765625 57.59375 -4.765625 C 55.007812 -2.773438 52.039062 -1.242188 48.6875 -0.171875 C 45.34375 0.890625 41.703125 1.421875 37.765625 1.421875 Z M 37.765625 1.421875 "/></g></g></g><g fill="#000000" fill-opacity="1"><g transform="translate(469.647387, 122.671065)"><g><path d="M 37.828125 1.421875 C 31.210938 1.421875 25.453125 -0.046875 20.546875 -2.984375 C 15.640625 -5.921875 11.835938 -10.023438 9.140625 -15.296875 C 6.453125 -20.578125 5.109375 -26.726562 5.109375 -33.75 C 5.109375 -40.78125 6.453125 -46.941406 9.140625 -52.234375 C 11.835938 -57.535156 15.640625 -61.648438 20.546875 -64.578125 C 25.453125 -67.515625 31.210938 -68.984375 37.828125 -68.984375 C 44.472656 -68.984375 50.25 -67.515625 55.15625 -64.578125 C 60.070312 -61.648438 63.875 -57.535156 66.5625 -52.234375 C 69.25 -46.941406 70.59375 -40.78125 70.59375 -33.75 C 70.59375 -26.726562 69.25 -20.578125 66.5625 -15.296875 C 63.875 -10.023438 60.070312 -5.921875 55.15625 -2.984375 C 50.25 -0.046875 44.472656 1.421875 37.828125 1.421875 Z M 37.828125 -11.578125 C 41.472656 -11.578125 44.53125 -12.550781 47 -14.5 C 49.46875 -16.457031 51.328125 -19.109375 52.578125 -22.453125 C 53.828125 -25.796875 54.453125 -29.5625 54.453125 -33.75 C 54.453125 -38.019531 53.828125 -41.828125 52.578125 -45.171875 C 51.328125 -48.523438 49.46875 -51.164062 47 -53.09375 C 44.53125 -55.03125 41.472656 -56 37.828125 -56 C 34.210938 -56 31.171875 -55.03125 28.703125 -53.09375 C 26.242188 -51.164062 24.394531 -48.523438 23.15625 -45.171875 C 21.925781 -41.828125 21.3125 -38.019531 21.3125 -33.75 C 21.3125 -29.5625 21.925781 -25.796875 23.15625 -22.453125 C 24.394531 -19.109375 26.242188 -16.457031 28.703125 -14.5 C 31.171875 -12.550781 34.210938 -11.578125 37.828125 -11.578125 Z M 37.828125 -11.578125 "/></g></g></g><g fill="#000000" fill-opacity="1"><g transform="translate(545.342402, 122.671065)"><g><path d="M 8.125 0 L 8.125 -68 L 23.53125 -68 L 23.53125 -56.671875 L 24.140625 -56.671875 C 25.378906 -60.609375 27.472656 -63.625 30.421875 -65.71875 C 33.378906 -67.820312 36.875 -68.875 40.90625 -68.875 C 41.84375 -68.875 42.832031 -68.84375 43.875 -68.78125 C 44.925781 -68.71875 45.820312 -68.625 46.5625 -68.5 L 46.5625 -53.96875 C 45.90625 -54.125 44.847656 -54.285156 43.390625 -54.453125 C 41.929688 -54.617188 40.484375 -54.703125 39.046875 -54.703125 C 36.210938 -54.703125 33.65625 -54.082031 31.375 -52.84375 C 29.101562 -51.613281 27.3125 -49.878906 26 -47.640625 C 24.6875 -45.410156 24.03125 -42.753906 24.03125 -39.671875 L 24.03125 0 Z M 8.125 0 "/></g></g></g><g fill="#000000" fill-opacity="1"><g transform="translate(591.904545, 122.671065)"><g><path d="M 38.1875 1.421875 C 31.375 1.421875 25.492188 -0.0351562 20.546875 -2.953125 C 15.597656 -5.867188 11.785156 -9.953125 9.109375 -15.203125 C 6.441406 -20.460938 5.109375 -26.625 5.109375 -33.6875 C 5.109375 -40.632812 6.429688 -46.765625 9.078125 -52.078125 C 11.734375 -57.398438 15.472656 -61.546875 20.296875 -64.515625 C 25.117188 -67.492188 30.753906 -68.984375 37.203125 -68.984375 C 41.515625 -68.984375 45.566406 -68.273438 49.359375 -66.859375 C 53.160156 -65.441406 56.507812 -63.304688 59.40625 -60.453125 C 62.300781 -57.597656 64.570312 -54.003906 66.21875 -49.671875 C 67.863281 -45.347656 68.6875 -40.269531 68.6875 -34.4375 L 68.6875 -29.625 L 12.375 -29.625 L 12.375 -40.46875 L 60.734375 -40.46875 L 53.34375 -37.328125 C 53.34375 -41.191406 52.726562 -44.5625 51.5 -47.4375 C 50.269531 -50.3125 48.472656 -52.535156 46.109375 -54.109375 C 43.742188 -55.691406 40.816406 -56.484375 37.328125 -56.484375 C 33.878906 -56.484375 30.921875 -55.679688 28.453125 -54.078125 C 25.992188 -52.484375 24.113281 -50.296875 22.8125 -47.515625 C 21.519531 -44.742188 20.875 -41.632812 20.875 -38.1875 L 20.875 -30.859375 C 20.875 -26.628906 21.59375 -23.035156 23.03125 -20.078125 C 24.46875 -17.117188 26.507812 -14.878906 29.15625 -13.359375 C 31.8125 -11.847656 34.90625 -11.09375 38.4375 -11.09375 C 40.820312 -11.09375 42.976562 -11.441406 44.90625 -12.140625 C 46.832031 -12.835938 48.484375 -13.851562 49.859375 -15.1875 C 51.234375 -16.519531 52.269531 -18.148438 52.96875 -20.078125 L 67.640625 -17.734375 C 66.609375 -13.921875 64.75 -10.578125 62.0625 -7.703125 C 59.375 -4.828125 55.992188 -2.585938 51.921875 -0.984375 C 47.859375 0.617188 43.28125 1.421875 38.1875 1.421875 Z M 38.1875 1.421875 "/></g></g></g></g></g></g><g clip-path="url(#4e3db1a17b)"><g clip-path="url(#f625411f33)"><g transform="matrix(1, 0, 0, 1, 20, 36)"><g clip-path="url(#3e011c2acb)"><g clip-path="url(#7a9cf675ac)"><g clip-path="url(#121918464a)"><path fill="#ffffff" d="M 0.914062 0.503906 L 90.734375 0.503906 L 90.734375 90.324219 L 0.914062 90.324219 Z M 0.914062 0.503906 " fill-opacity="1" fill-rule="nonzero"/></g></g></g></g></g></g><g clip-path="url(#983d71f0fb)"><path fill="#1a3da5" d="M 1.648438 43.519531 C 6.550781 42.839844 10.894531 42.472656 15.132812 41.605469 C 23.613281 39.867188 31.179688 35.9375 38.171875 30.964844 C 46.105469 25.320312 53.863281 19.429688 61.71875 13.675781 C 65.699219 10.757812 65.734375 10.757812 69.808594 13.742188 C 77.523438 19.394531 85.140625 25.179688 92.925781 30.734375 C 103.035156 37.941406 114.125 42.574219 126.742188 43.007812 C 129.910156 43.117188 130.480469 43.667969 130.453125 46.722656 C 130.296875 63.953125 129.832031 81.175781 125.179688 97.9375 C 119.742188 117.53125 108.214844 132.453125 90.230469 142 C 83.503906 145.570312 76.289062 148.238281 69.207031 151.082031 C 67.546875 151.75 65.324219 152.042969 63.667969 151.527344 C 49.601562 147.136719 36.460938 140.964844 25.539062 130.75 C 14.039062 119.992188 7.824219 106.417969 4.621094 91.296875 C 1.46875 76.410156 1.015625 61.289062 1.105469 46.136719 C 1.109375 45.320312 1.4375 44.503906 1.648438 43.519531 Z M 59.019531 112.9375 C 65.859375 106.210938 100.183594 63.140625 101.746094 59.292969 C 98.316406 56.414062 94.804688 53.464844 91.058594 50.316406 C 79.84375 63.925781 69.054688 77.019531 58.0625 90.355469 C 54.480469 86.976562 51.386719 83.933594 48.15625 81.046875 C 44.984375 78.210938 42.328125 74.738281 38.222656 72.550781 C 35.113281 76.265625 32.160156 79.796875 29.042969 83.519531 C 39.246094 93.535156 49.03125 103.136719 59.019531 112.9375 Z M 59.019531 112.9375 " fill-opacity="1" fill-rule="nonzero"/></g></g></g></svg>